G04 DipTrace 3.1.0.0*
G04 Top.gbr*
%MOMM*%
G04 #@! TF.FileFunction,Copper,L1,Top*
G04 #@! TF.Part,Single*
G04 #@! TA.AperFunction,Conductor*
%ADD13C,0.33*%
%ADD14R,1.3X1.5*%
G04 #@! TA.AperFunction,ComponentPad*
%ADD15R,1.4X1.4*%
%ADD16C,1.4*%
%ADD17R,1.5X1.3*%
G04 #@! TA.AperFunction,ComponentPad*
%ADD18R,1.0X1.0*%
%ADD19C,1.0*%
%ADD20R,1.5X1.5*%
%ADD21C,1.5*%
%FSLAX35Y35*%
G04*
G71*
G90*
G75*
G01*
G04 Top*
%LPD*%
X2079500Y1317500D2*
D13*
X1787247D1*
X1761743Y1343003D1*
X1317500Y2079500D2*
X1375687D1*
X1430233Y2134047D1*
Y2270060D1*
X1489740Y2329567D1*
X1563813D1*
X1572393Y2320987D1*
X2403553Y2560947D2*
Y1428433D1*
X2288827Y1313707D1*
X2083293D1*
X2079500Y1317500D1*
X3194563Y1875943D2*
X3233607D1*
X3334443Y1976780D1*
Y2316817D1*
X3283437Y2367823D1*
X3197633D1*
X3193667Y2363857D1*
X1761743Y1343003D2*
Y1215920D1*
X1706513Y1160690D1*
X1379227D1*
X1196457Y1343460D1*
Y2040537D1*
X1234710Y2078790D1*
X1316790D1*
X1317500Y2079500D1*
X1571500Y1698500D2*
Y1733500D1*
X1459987Y1845013D1*
X1337013D1*
X1317500Y1825500D1*
Y1952500D2*
X1444500D1*
X1571500Y2079500D1*
X2079500Y1825500D2*
X1891797D1*
X1795773Y1921523D1*
Y2045227D1*
X1761500Y2079500D1*
X1868740D1*
X1927537Y2138297D1*
Y2359320D1*
X2008297Y2440080D1*
Y2552500D1*
X2021560Y2565767D1*
X2079500Y1571500D2*
X1888500D1*
X1761500Y1698500D1*
X1571743Y1343003D2*
Y1476470D1*
X1621503Y1526230D1*
X1710763D1*
X1774520Y1589987D1*
Y1685480D1*
X1761500Y1698500D1*
X2079500Y2079500D2*
Y2149993D1*
X2212320Y2282813D1*
Y2565007D1*
X2211560Y2565767D1*
X1795013Y2569447D2*
Y2651847D1*
X1872283Y2729113D1*
X2148563D1*
X2216570Y2661103D1*
Y2570773D1*
X2211560Y2565767D1*
X1605013Y2569447D2*
Y2486327D1*
X1664010Y2427330D1*
X1736267D1*
X1761770Y2401827D1*
Y2321610D1*
X1762393Y2320987D1*
X1605013Y2569447D2*
X1495843D1*
X1387727Y2461333D1*
Y2384823D1*
X1128450Y2125547D1*
Y1300953D1*
X1349473Y1079930D1*
X2730877D1*
X2845640Y1194693D1*
Y1313360D1*
X2841500Y1317500D1*
X2984597Y2561517D2*
X3186007D1*
X3193667Y2553857D1*
X3241920D1*
X3410953Y2384823D1*
Y1530480D1*
X3355697Y1475223D1*
X3036910D1*
X2934900Y1577233D1*
X2847233D1*
X2841500Y1571500D1*
X2593553Y2560947D2*
X2794027D1*
X2794597Y2561517D1*
X3194563Y1675943D2*
X3095470D1*
X2994407Y1777007D1*
X2947650Y1823763D1*
X2843237D1*
X2841500Y1825500D1*
X2994407Y1777007D2*
Y2176550D1*
X2794633Y2376323D1*
Y2561480D1*
D14*
X1762393Y2320987D3*
X1572393D3*
D15*
X3194563Y1675943D3*
D16*
Y1875943D3*
Y2075943D3*
D14*
X1571500Y2079500D3*
X1761500D3*
X1571500Y1698500D3*
X1761500D3*
X1761743Y1343003D3*
X1571743D3*
X2021560Y2565767D3*
X2211560D3*
X1795013Y2569447D3*
X1605013D3*
D17*
X3193667Y2363857D3*
Y2553857D3*
D14*
X2984597Y2561517D3*
X2794597D3*
X2403553Y2560947D3*
X2593553D3*
D18*
X1317500Y1698500D3*
D19*
Y1825500D3*
Y1952500D3*
Y2079500D3*
D20*
X2079500D3*
D21*
Y1825500D3*
Y1571500D3*
Y1317500D3*
X2841500D3*
Y1571500D3*
Y1825500D3*
Y2079500D3*
M02*
