G04 DipTrace 3.1.0.0*
G04 TopSilk.gbr*
%MOMM*%
G04 #@! TF.FileFunction,Legend,Top*
G04 #@! TF.Part,Single*
%ADD10C,0.25*%
%ADD40C,0.19608*%
%FSLAX35Y35*%
G04*
G71*
G90*
G75*
G01*
G04 TopSilk*
%LPD*%
X1867447Y2385937D2*
D10*
Y2256037D1*
X3076563Y1555943D2*
X3351563D1*
Y2195943D1*
X3076563D1*
Y1555943D1*
X2720511Y2198500D2*
Y1198500D1*
X2200489D2*
X2720511D1*
X2200489Y2198500D2*
Y1198500D1*
Y2198500D2*
X2400490D1*
X2720511D2*
X2520510D1*
X2400490D2*
G03X2520510Y2198500I60010J10D01*
G01*
X1413355Y2347627D2*
D40*
X1407319Y2359700D1*
X1395105Y2371913D1*
X1383032Y2377950D1*
X1358746D1*
X1346532Y2371913D1*
X1334459Y2359700D1*
X1328282Y2347627D1*
X1322246Y2329377D1*
Y2298913D1*
X1328282Y2280804D1*
X1334459Y2268590D1*
X1346532Y2256517D1*
X1358746Y2250340D1*
X1383032D1*
X1395105Y2256517D1*
X1407319Y2268590D1*
X1413355Y2280804D1*
X1452571Y2353523D2*
X1464784Y2359700D1*
X1483034Y2377810D1*
Y2250340D1*
X3218117Y1514833D2*
Y1417687D1*
X3212080Y1399437D1*
X3205904Y1393401D1*
X3193830Y1387224D1*
X3181617D1*
X3169544Y1393401D1*
X3163507Y1399437D1*
X3157330Y1417687D1*
Y1429760D1*
X3257333Y1490406D2*
X3269546Y1496583D1*
X3287796Y1514693D1*
Y1387224D1*
X1674134Y1922660D2*
X1728744D1*
X1746994Y1928837D1*
X1753170Y1934874D1*
X1759207Y1946947D1*
Y1959160D1*
X1753170Y1971233D1*
X1746994Y1977410D1*
X1728744Y1983447D1*
X1674134D1*
Y1855837D1*
X1716670Y1922660D2*
X1759207Y1855837D1*
X1798423Y1959020D2*
X1810636Y1965197D1*
X1828886Y1983306D1*
Y1855837D1*
X1417302Y1541660D2*
X1471912D1*
X1490162Y1547837D1*
X1496339Y1553874D1*
X1502375Y1565947D1*
Y1578160D1*
X1496339Y1590233D1*
X1490162Y1596410D1*
X1471912Y1602447D1*
X1417302D1*
Y1474837D1*
X1459839Y1541660D2*
X1502375Y1474837D1*
X1547768Y1571983D2*
Y1578020D1*
X1553805Y1590233D1*
X1559841Y1596270D1*
X1572055Y1602306D1*
X1596341D1*
X1608414Y1596270D1*
X1614451Y1590233D1*
X1620628Y1578020D1*
Y1565947D1*
X1614451Y1553733D1*
X1602378Y1535624D1*
X1541591Y1474837D1*
X1626664D1*
X1264529Y1317930D2*
X1319139D1*
X1337389Y1324107D1*
X1343566Y1330144D1*
X1349602Y1342217D1*
Y1354430D1*
X1343566Y1366503D1*
X1337389Y1372680D1*
X1319139Y1378717D1*
X1264529D1*
Y1251107D1*
X1307066Y1317930D2*
X1349602Y1251107D1*
X1401031Y1378576D2*
X1467714D1*
X1431354Y1330003D1*
X1449604D1*
X1461677Y1323967D1*
X1467714Y1317930D1*
X1473891Y1299680D1*
Y1287607D1*
X1467714Y1269357D1*
X1455641Y1257144D1*
X1437391Y1251107D1*
X1419141D1*
X1401031Y1257144D1*
X1394995Y1263320D1*
X1388818Y1275394D1*
X2008861Y2744713D2*
X2063470D1*
X2081720Y2750890D1*
X2087897Y2756927D1*
X2093934Y2769000D1*
Y2781213D1*
X2087897Y2793286D1*
X2081720Y2799463D1*
X2063470Y2805500D1*
X2008861D1*
Y2677890D1*
X2051397Y2744713D2*
X2093934Y2677890D1*
X2193936D2*
Y2805360D1*
X2133150Y2720427D1*
X2224259D1*
X1595332Y2739893D2*
X1649942D1*
X1668192Y2746070D1*
X1674369Y2752107D1*
X1680405Y2764180D1*
Y2776393D1*
X1674369Y2788466D1*
X1668192Y2794643D1*
X1649942Y2800680D1*
X1595332D1*
Y2673070D1*
X1637869Y2739893D2*
X1680405Y2673070D1*
X1792481Y2800540D2*
X1731835D1*
X1725798Y2745930D1*
X1731835Y2751966D1*
X1750085Y2758143D1*
X1768194D1*
X1786444Y2751966D1*
X1798658Y2739893D1*
X1804694Y2721643D1*
Y2709570D1*
X1798658Y2691320D1*
X1786444Y2679107D1*
X1768194Y2673070D1*
X1750085D1*
X1731835Y2679107D1*
X1725798Y2685284D1*
X1719621Y2697357D1*
X3371760Y2387018D2*
Y2441627D1*
X3365583Y2459877D1*
X3359547Y2466054D1*
X3347474Y2472091D1*
X3335260D1*
X3323187Y2466054D1*
X3317010Y2459877D1*
X3310973Y2441627D1*
Y2387018D1*
X3438583D1*
X3371760Y2429554D2*
X3438583Y2472091D1*
X3329224Y2584166D2*
X3317150Y2578130D1*
X3311114Y2559880D1*
Y2547806D1*
X3317150Y2529557D1*
X3335400Y2517343D1*
X3365724Y2511306D1*
X3396047D1*
X3420333Y2517343D1*
X3432547Y2529556D1*
X3438583Y2547806D1*
Y2553843D1*
X3432547Y2571952D1*
X3420333Y2584166D1*
X3402083Y2590203D1*
X3396047D1*
X3377797Y2584166D1*
X3365724Y2571953D1*
X3359687Y2553843D1*
Y2547806D1*
X3365724Y2529556D1*
X3377797Y2517343D1*
X3396047Y2511306D1*
X2780666Y2740463D2*
X2835275D1*
X2853525Y2746640D1*
X2859702Y2752677D1*
X2865739Y2764750D1*
Y2776963D1*
X2859702Y2789036D1*
X2853525Y2795213D1*
X2835275Y2801250D1*
X2780666D1*
Y2673640D1*
X2823202Y2740463D2*
X2865739Y2673640D1*
X2929241D2*
X2990028Y2801110D1*
X2904955D1*
X2389693Y2744143D2*
X2444302D1*
X2462552Y2750320D1*
X2468729Y2756357D1*
X2474766Y2768430D1*
Y2780643D1*
X2468729Y2792716D1*
X2462552Y2798893D1*
X2444302Y2804930D1*
X2389693D1*
Y2677320D1*
X2432229Y2744143D2*
X2474766Y2677320D1*
X2544304Y2804790D2*
X2526195Y2798753D1*
X2520018Y2786680D1*
Y2774466D1*
X2526195Y2762393D1*
X2538268Y2756216D1*
X2562554Y2750180D1*
X2580804Y2744143D1*
X2592878Y2731930D1*
X2598914Y2719857D1*
Y2701607D1*
X2592878Y2689534D1*
X2586841Y2683357D1*
X2568591Y2677320D1*
X2544304D1*
X2526195Y2683357D1*
X2520018Y2689534D1*
X2513981Y2701607D1*
Y2719857D1*
X2520018Y2731930D1*
X2532231Y2744143D1*
X2550341Y2750180D1*
X2574628Y2756216D1*
X2586841Y2762393D1*
X2592878Y2774466D1*
Y2786680D1*
X2586841Y2798753D1*
X2568591Y2804790D1*
X2544304D1*
X1128270Y2104908D2*
X1219380D1*
X1237630Y2110944D1*
X1249703Y2123158D1*
X1255880Y2141407D1*
Y2153480D1*
X1249703Y2171730D1*
X1237630Y2183944D1*
X1219380Y2189980D1*
X1128270Y2189981D1*
X1152697Y2229196D2*
X1146520Y2241410D1*
X1128411Y2259660D1*
X1255880Y2259659D1*
X2436579Y2091203D2*
Y2000094D1*
X2442616Y1981844D1*
X2454829Y1969771D1*
X2473079Y1963594D1*
X2485152D1*
X2503402Y1969771D1*
X2515616Y1981844D1*
X2521652Y2000094D1*
Y2091203D1*
X2567045Y2060740D2*
Y2066776D1*
X2573081Y2078990D1*
X2579118Y2085026D1*
X2591331Y2091063D1*
X2615618D1*
X2627691Y2085026D1*
X2633727Y2078990D1*
X2639904Y2066776D1*
Y2054703D1*
X2633727Y2042490D1*
X2621654Y2024380D1*
X2560868Y1963594D1*
X2645941D1*
M02*
