  0
SECTION
  2
HEADER
  9
$ACADVER
  1
AC1014
  9
$HANDSEED
  5
FFFF
  9
$MEASUREMENT
 70
     1
  0
ENDSEC
  0
SECTION
  2
TABLES
  0
TABLE
  2
VPORT
  5
8
330
0
100
AcDbSymbolTable
 70
     4
  0
VPORT
  5
2E
330
8
100
AcDbSymbolTableRecord
100
AcDbViewportTableRecord
  2
*ACTIVE
 70
     0
 10
0.0
 20
0.0
 11
1.0
 21
1.0
 12
210.0
 22
148.5
 13
0.0
 23
0.0
 14
10.0
 24
10.0
 15
10.0
 25
10.0
 16
0.0
 26
0.0
 36
1.0
 17
0.0
 27
0.0
 37
0.0
 40
341.0
 41
1.24
 42
50.0
 43
0.0
 44
0.0
 50
0.0
 51
0.0
 71
     0
 72
   100
 73
     1
 74
     3
 75
     0
 76
     0
 77
     0
 78
     0
  0
ENDTAB
  0
TABLE
  2
LTYPE
  5
5
330
0
100
AcDbSymbolTable
 70
     1
  0
LTYPE
  5
14
330
5
100
AcDbSymbolTableRecord
100
AcDbLinetypeTableRecord
  2
BYBLOCK
 70
     0
  3

 72
    65
 73
     0
 40
0.0
  0
LTYPE
  5
15
330
5
100
AcDbSymbolTableRecord
100
AcDbLinetypeTableRecord
  2
BYLAYER
 70
     0
  3

 72
    65
 73
     0
 40
0.0
  0
LTYPE
  5
16
330
5
100
AcDbSymbolTableRecord
100
AcDbLinetypeTableRecord
  2
CONTINUOUS
 70
     0
  3
Solid line
 72
    65
 73
     0
 40
0.0
  0
ENDTAB
  0
TABLE
  2
LAYER
  5
2
100
AcDbSymbolTable
 70
1
  0
LAYER
  5
50
100
AcDbSymbolTableRecord
100
AcDbLayerTableRecord
  2
0
 70
0
  6
CONTINUOUS
  0
ENDTAB
  0
TABLE
  2
STYLE
  5
3
330
0
100
AcDbSymbolTable
 70
     1
  0
STYLE
  5
11
330
3
100
AcDbSymbolTableRecord
100
AcDbTextStyleTableRecord
  2
STANDARD
 70
     0
 40
0.0
 41
1.0
 50
0.0
 71
     0
 42
2.5
  3
txt
  4

  0
ENDTAB
  0
TABLE
  2
VIEW
  5
6
330
0
100
AcDbSymbolTable
 70
     0
  0
ENDTAB
  0
TABLE
  2
UCS
  5
7
330
0
100
AcDbSymbolTable
 70
     0
  0
ENDTAB
  0
TABLE
  2
APPID
  5
9
330
0
100
AcDbSymbolTable
 70
     2
  0
APPID
  5
12
330
9
100
AcDbSymbolTableRecord
100
AcDbRegAppTableRecord
  2
ACAD
 70
     0
  0
ENDTAB
  0
TABLE
  2
DIMSTYLE
  5
A
330
0
100
AcDbSymbolTable
 70
     1
  0
DIMSTYLE
105
27
330
A
100
AcDbSymbolTableRecord
100
AcDbDimStyleTableRecord
  2
ISO-25
 70
     0
  3

  4

  5

  6

  7

 40
1.0
 41
2.5
 42
0.625
 43
3.75
 44
1.25
 45
0.0
 46
0.0
 47
0.0
 48
0.0
140
2.5
141
2.5
142
0.0
143
0.03937007874016
144
1.0
145
0.0
146
1.0
147
0.625
 71
     0
 72
     0
 73
     0
 74
     0
 75
     0
 76
     0
 77
     1
 78
     8
170
     0
171
     3
172
     1
173
     0
174
     0
175
     0
176
     0
177
     0
178
     0
270
     2
271
     2
272
     2
273
     2
274
     3
340
11
275
     0
280
     0
281
     0
282
     0
283
     0
284
     8
285
     0
286
     0
287
     3
288
     0
  0
ENDTAB
  0
TABLE
  2
BLOCK_RECORD
  5
1
330
0
100
AcDbSymbolTable
 70
     1
  0
BLOCK_RECORD
  5
1F
330
1
100
AcDbSymbolTableRecord
100
AcDbBlockTableRecord
  2
*MODEL_SPACE
  0
BLOCK_RECORD
  5
1B
330
1
100
AcDbSymbolTableRecord
100
AcDbBlockTableRecord
  2
*PAPER_SPACE
  0
ENDTAB
  0
ENDSEC
  0
SECTION
  2
BLOCKS
  0
BLOCK
  5
20
330
1F
100
AcDbEntity
  8
0
100
AcDbBlockBegin
  2
*MODEL_SPACE
 70
     0
 10
0.0
 20
0.0
 30
0.0
  3
*MODEL_SPACE
  1

  0
ENDBLK
  5
21
330
1F
100
AcDbEntity
  8
0
100
AcDbBlockEnd
  0
BLOCK
  5
1C
330
1B
100
AcDbEntity
 67
     1
  8
0
100
AcDbBlockBegin
  2
*PAPER_SPACE
  1

  0
ENDBLK
  5
1D
330
1B
100
AcDbEntity
 67
     1
  8
0
100
AcDbBlockEnd
  0
ENDSEC
  0
SECTION
  2
ENTITIES
  0
SPLINE
  5
100
100
AcDbEntity
  8
0
 62
7
100
AcDbSpline
 70
8
 71
3
 72
8
 73
4
 74
0
 40
0
 40
0
 40
0
 40
0
 40
1
 40
1
 40
1
 40
1
 10
100.988925
 20
77.802420
 30
0.0
 10
100.918275
 20
77.838045
 30
0.0
 10
100.855995
 20
77.905965
 30
0.0
 10
100.810575
 20
77.996903
 30
0.0
  0
SPLINE
  5
101
100
AcDbEntity
  8
0
 62
7
100
AcDbSpline
 70
8
 71
3
 72
8
 73
4
 74
0
 40
0
 40
0
 40
0
 40
0
 40
1
 40
1
 40
1
 40
1
 10
104.036340
 20
77.747617
 30
0.0
 10
101.300588
 20
77.747647
 30
0.0
 10
101.090018
 20
77.751367
 30
0.0
 10
100.988962
 20
77.802368
 30
0.0
  0
LWPOLYLINE
  5
102
100
AcDbEntity
  8
0
 62
7
100
AcDbPolyline
 90
9
 70
0
 10
100.810575
 20
77.996903
 30
0.0
 10
100.740825
 20
78.136635
 30
0.0
 10
100.740825
 20
81.073800
 30
0.0
 10
100.740825
 20
84.010965
 30
0.0
 10
103.857990
 20
84.010965
 30
0.0
 10
106.975155
 20
84.010965
 30
0.0
 10
106.975155
 20
80.879257
 30
0.0
 10
106.975155
 20
77.747565
 30
0.0
 10
104.036340
 20
77.747617
 30
0.0
  0
SPLINE
  5
103
100
AcDbEntity
  8
0
 62
7
100
AcDbSpline
 70
8
 71
3
 72
8
 73
4
 74
0
 40
0
 40
0
 40
0
 40
0
 40
1
 40
1
 40
1
 40
1
 10
103.093478
 20
78.972247
 30
0.0
 10
103.200405
 20
79.301347
 30
0.0
 10
103.283565
 20
79.573477
 30
0.0
 10
103.278270
 20
79.576972
 30
0.0
  0
SPLINE
  5
104
100
AcDbEntity
  8
0
 62
7
100
AcDbSpline
 70
8
 71
3
 72
8
 73
4
 74
0
 40
0
 40
0
 40
0
 40
0
 40
1
 40
1
 40
1
 40
1
 10
103.278270
 20
79.576972
 30
0.0
 10
103.265595
 20
79.585372
 30
0.0
 10
102.347835
 20
80.256540
 30
0.0
 10
102.305708
 20
80.288212
 30
0.0
  0
SPLINE
  5
105
100
AcDbEntity
  8
0
 62
7
100
AcDbSpline
 70
8
 71
3
 72
8
 73
4
 74
0
 40
0
 40
0
 40
0
 40
0
 40
1
 40
1
 40
1
 40
1
 10
102.305708
 20
80.288212
 30
0.0
 10
102.286957
 20
80.302312
 30
0.0
 10
102.083820
 20
80.173110
 30
0.0
 10
101.824958
 20
79.982520
 30
0.0
  0
SPLINE
  5
106
100
AcDbEntity
  8
0
 62
7
100
AcDbSpline
 70
8
 71
3
 72
8
 73
4
 74
0
 40
0
 40
0
 40
0
 40
0
 40
1
 40
1
 40
1
 40
1
 10
101.824958
 20
79.982520
 30
0.0
 10
101.578373
 20
79.800967
 30
0.0
 10
101.352390
 20
79.634850
 30
0.0
 10
101.322758
 20
79.613370
 30
0.0
  0
SPLINE
  5
107
100
AcDbEntity
  8
0
 62
7
100
AcDbSpline
 70
8
 71
3
 72
8
 73
4
 74
0
 40
0
 40
0
 40
0
 40
0
 40
1
 40
1
 40
1
 40
1
 10
101.322758
 20
79.613370
 30
0.0
 10
101.272058
 20
79.576620
 30
0.0
 10
101.273257
 20
79.560720
 30
0.0
 10
101.343983
 20
79.342072
 30
0.0
  0
SPLINE
  5
108
100
AcDbEntity
  8
0
 62
7
100
AcDbSpline
 70
8
 71
3
 72
8
 73
4
 74
0
 40
0
 40
0
 40
0
 40
0
 40
1
 40
1
 40
1
 40
1
 10
101.343983
 20
79.342072
 30
0.0
 10
101.385308
 20
79.214347
 30
0.0
 10
101.469353
 20
78.944257
 30
0.0
 10
101.530740
 20
78.741877
 30
0.0
  0
LWPOLYLINE
  5
109
100
AcDbEntity
  8
0
 62
7
100
AcDbPolyline
 90
1
 70
1
 10
100.988962
 20
77.802368
 30
0.0
  0
SPLINE
  5
10a
100
AcDbEntity
  8
0
 62
7
100
AcDbSpline
 70
8
 71
3
 72
8
 73
4
 74
0
 40
0
 40
0
 40
0
 40
0
 40
1
 40
1
 40
1
 40
1
 10
106.478850
 20
78.391035
 30
0.0
 10
106.478850
 20
78.441660
 30
0.0
 10
105.503438
 20
80.137732
 30
0.0
 10
105.468015
 20
80.148757
 30
0.0
  0
SPLINE
  5
10b
100
AcDbEntity
  8
0
 62
7
100
AcDbSpline
 70
8
 71
3
 72
8
 73
4
 74
0
 40
0
 40
0
 40
0
 40
0
 40
1
 40
1
 40
1
 40
1
 10
105.468015
 20
80.148757
 30
0.0
 10
105.452490
 20
80.153257
 30
0.0
 10
105.363623
 20
80.020455
 30
0.0
 10
105.270518
 20
79.852912
 30
0.0
  0
SPLINE
  5
10c
100
AcDbEntity
  8
0
 62
7
100
AcDbSpline
 70
8
 71
3
 72
8
 73
4
 74
0
 40
0
 40
0
 40
0
 40
0
 40
1
 40
1
 40
1
 40
1
 10
105.270518
 20
79.852912
 30
0.0
 10
105.177413
 20
79.685370
 30
0.0
 10
104.995328
 20
79.365090
 30
0.0
 10
104.865878
 20
79.141162
 30
0.0
  0
SPLINE
  5
10d
100
AcDbEntity
  8
0
 62
7
100
AcDbSpline
 70
8
 71
3
 72
8
 73
4
 74
0
 40
0
 40
0
 40
0
 40
0
 40
1
 40
1
 40
1
 40
1
 10
104.865878
 20
79.141162
 30
0.0
 10
104.736428
 20
78.917250
 30
0.0
 10
104.585678
 20
78.653017
 30
0.0
 10
104.530875
 20
78.553972
 30
0.0
  0
LWPOLYLINE
  5
10e
100
AcDbEntity
  8
0
 62
7
100
AcDbPolyline
 90
5
 70
0
 10
101.530740
 20
78.741877
 30
0.0
 10
101.642355
 20
78.373905
 30
0.0
 10
102.270683
 20
78.373905
 30
0.0
 10
102.899003
 20
78.373905
 30
0.0
 10
103.093478
 20
78.972247
 30
0.0
  0
SPLINE
  5
10f
100
AcDbEntity
  8
0
 62
7
100
AcDbSpline
 70
8
 71
3
 72
8
 73
4
 74
0
 40
0
 40
0
 40
0
 40
0
 40
1
 40
1
 40
1
 40
1
 10
105.455040
 20
78.373905
 30
0.0
 10
106.018140
 20
78.373905
 30
0.0
 10
106.478850
 20
78.381855
 30
0.0
 10
106.478850
 20
78.391005
 30
0.0
  0
LWPOLYLINE
  5
110
100
AcDbEntity
  8
0
 62
7
100
AcDbPolyline
 90
3
 70
0
 10
104.530875
 20
78.553972
 30
0.0
 10
104.431230
 20
78.373905
 30
0.0
 10
105.455040
 20
78.373905
 30
0.0
  0
LWPOLYLINE
  5
111
100
AcDbEntity
  8
0
 62
7
100
AcDbPolyline
 90
1
 70
1
 10
106.478850
 20
78.391005
 30
0.0
  0
SPLINE
  5
112
100
AcDbEntity
  8
0
 62
7
100
AcDbSpline
 70
8
 71
3
 72
8
 73
4
 74
0
 40
0
 40
0
 40
0
 40
0
 40
1
 40
1
 40
1
 40
1
 10
105.894150
 20
81.502733
 30
0.0
 10
106.080412
 20
81.592410
 30
0.0
 10
106.297013
 20
81.809198
 30
0.0
 10
106.389263
 20
81.998280
 30
0.0
  0
SPLINE
  5
113
100
AcDbEntity
  8
0
 62
7
100
AcDbSpline
 70
8
 71
3
 72
8
 73
4
 74
0
 40
0
 40
0
 40
0
 40
0
 40
1
 40
1
 40
1
 40
1
 10
106.389263
 20
81.998280
 30
0.0
 10
106.495935
 20
82.216927
 30
0.0
 10
106.494323
 20
82.645058
 30
0.0
 10
106.386263
 20
82.867890
 30
0.0
  0
SPLINE
  5
114
100
AcDbEntity
  8
0
 62
7
100
AcDbSpline
 70
8
 71
3
 72
8
 73
4
 74
0
 40
0
 40
0
 40
0
 40
0
 40
1
 40
1
 40
1
 40
1
 10
106.386263
 20
82.867890
 30
0.0
 10
106.292303
 20
83.061127
 30
0.0
 10
106.092525
 20
83.261505
 30
0.0
 10
105.897570
 20
83.358023
 30
0.0
  0
SPLINE
  5
115
100
AcDbEntity
  8
0
 62
7
100
AcDbSpline
 70
8
 71
3
 72
8
 73
4
 74
0
 40
0
 40
0
 40
0
 40
0
 40
1
 40
1
 40
1
 40
1
 10
105.897570
 20
83.358023
 30
0.0
 10
105.672428
 20
83.469472
 30
0.0
 10
105.308693
 20
83.477820
 30
0.0
 10
105.082268
 20
83.376698
 30
0.0
  0
SPLINE
  5
116
100
AcDbEntity
  8
0
 62
7
100
AcDbSpline
 70
8
 71
3
 72
8
 73
4
 74
0
 40
0
 40
0
 40
0
 40
0
 40
1
 40
1
 40
1
 40
1
 10
105.082268
 20
83.376698
 30
0.0
 10
104.838578
 20
83.267880
 30
0.0
 10
104.613053
 20
83.035268
 30
0.0
 10
104.527065
 20
82.804050
 30
0.0
  0
SPLINE
  5
117
100
AcDbEntity
  8
0
 62
7
100
AcDbSpline
 70
8
 71
3
 72
8
 73
4
 74
0
 40
0
 40
0
 40
0
 40
0
 40
1
 40
1
 40
1
 40
1
 10
104.527065
 20
82.804050
 30
0.0
 10
104.428980
 20
82.540298
 30
0.0
 10
104.444423
 20
82.218143
 30
0.0
 10
104.567265
 20
81.965310
 30
0.0
  0
SPLINE
  5
118
100
AcDbEntity
  8
0
 62
7
100
AcDbSpline
 70
8
 71
3
 72
8
 73
4
 74
0
 40
0
 40
0
 40
0
 40
0
 40
1
 40
1
 40
1
 40
1
 10
104.567265
 20
81.965310
 30
0.0
 10
104.669782
 20
81.754320
 30
0.0
 10
104.911282
 20
81.542557
 30
0.0
 10
105.141120
 20
81.462112
 30
0.0
  0
SPLINE
  5
119
100
AcDbEntity
  8
0
 62
7
100
AcDbSpline
 70
8
 71
3
 72
8
 73
4
 74
0
 40
0
 40
0
 40
0
 40
0
 40
1
 40
1
 40
1
 40
1
 10
105.141120
 20
81.462112
 30
0.0
 10
105.342488
 20
81.391613
 30
0.0
 10
105.704167
 20
81.411113
 30
0.0
 10
105.894405
 20
81.502688
 30
0.0
  0
LWPOLYLINE
  5
11a
100
AcDbEntity
  8
0
 62
7
100
AcDbPolyline
 90
8
 70
1
 10
103.284150
 20
82.429455
 30
0.0
 10
103.284150
 20
83.447257
 30
0.0
 10
102.276113
 20
83.447257
 30
0.0
 10
101.268075
 20
83.447257
 30
0.0
 10
101.268075
 20
82.429455
 30
0.0
 10
101.268075
 20
81.411645
 30
0.0
 10
102.276113
 20
81.411645
 30
0.0
 10
103.284150
 20
81.411645
 30
0.0
  0
SPLINE
  5
11b
100
AcDbEntity
  8
0
 62
7
100
AcDbSpline
 70
8
 71
3
 72
8
 73
4
 74
0
 40
0
 40
0
 40
0
 40
0
 40
1
 40
1
 40
1
 40
1
 10
107.916518
 20
83.267677
 30
0.0
 10
107.676878
 20
83.685097
 30
0.0
 10
107.387010
 20
84.191970
 30
0.0
 10
107.272358
 20
84.394072
 30
0.0
  0
SPLINE
  5
11c
100
AcDbEntity
  8
0
 62
7
100
AcDbSpline
 70
8
 71
3
 72
8
 73
4
 74
0
 40
0
 40
0
 40
0
 40
0
 40
1
 40
1
 40
1
 40
1
 10
107.272358
 20
84.394072
 30
0.0
 10
107.157713
 20
84.596175
 30
0.0
 10
107.050253
 20
84.770047
 30
0.0
 10
107.033558
 20
84.780473
 30
0.0
  0
SPLINE
  5
11d
100
AcDbEntity
  8
0
 62
7
100
AcDbSpline
 70
8
 71
3
 72
8
 73
4
 74
0
 40
0
 40
0
 40
0
 40
0
 40
1
 40
1
 40
1
 40
1
 10
107.033558
 20
84.780473
 30
0.0
 10
107.016833
 20
84.790897
 30
0.0
 10
106.818930
 20
84.693637
 30
0.0
 10
106.593705
 20
84.564360
 30
0.0
  0
SPLINE
  5
11e
100
AcDbEntity
  8
0
 62
7
100
AcDbSpline
 70
8
 71
3
 72
8
 73
4
 74
0
 40
0
 40
0
 40
0
 40
0
 40
1
 40
1
 40
1
 40
1
 10
106.593705
 20
84.564360
 30
0.0
 10
106.368473
 20
84.435075
 30
0.0
 10
106.165995
 20
84.324615
 30
0.0
 10
106.143743
 20
84.318892
 30
0.0
  0
SPLINE
  5
11f
100
AcDbEntity
  8
0
 62
7
100
AcDbSpline
 70
8
 71
3
 72
8
 73
4
 74
0
 40
0
 40
0
 40
0
 40
0
 40
1
 40
1
 40
1
 40
1
 10
106.143743
 20
84.318892
 30
0.0
 10
106.107518
 20
84.309517
 30
0.0
 10
106.027605
 20
84.438660
 30
0.0
 10
105.546128
 20
85.284045
 30
0.0
  0
LWPOLYLINE
  5
120
100
AcDbEntity
  8
0
 62
7
100
AcDbPolyline
 90
2
 70
0
 10
105.894405
 20
81.502688
 30
0.0
 10
105.894150
 20
81.502733
 30
0.0
  0
SPLINE
  5
121
100
AcDbEntity
  8
0
 62
7
100
AcDbSpline
 70
8
 71
3
 72
8
 73
4
 74
0
 40
0
 40
0
 40
0
 40
0
 40
1
 40
1
 40
1
 40
1
 10
106.268963
 20
85.922685
 30
0.0
 10
106.717050
 20
86.185192
 30
0.0
 10
107.149208
 20
86.439638
 30
0.0
 10
107.229300
 20
86.488117
 30
0.0
  0
LWPOLYLINE
  5
122
100
AcDbEntity
  8
0
 62
7
100
AcDbPolyline
 90
3
 70
0
 10
105.546128
 20
85.284045
 30
0.0
 10
105.454245
 20
85.445385
 30
0.0
 10
106.268963
 20
85.922685
 30
0.0
  0
SPLINE
  5
123
100
AcDbEntity
  8
0
 62
7
100
AcDbSpline
 70
8
 71
3
 72
8
 73
4
 74
0
 40
0
 40
0
 40
0
 40
0
 40
1
 40
1
 40
1
 40
1
 10
107.691488
 20
86.021730
 30
0.0
 10
107.865593
 20
85.716735
 30
0.0
 10
108.129900
 20
85.255815
 30
0.0
 10
108.278828
 20
84.997440
 30
0.0
  0
SPLINE
  5
124
100
AcDbEntity
  8
0
 62
7
100
AcDbSpline
 70
8
 71
3
 72
8
 73
4
 74
0
 40
0
 40
0
 40
0
 40
0
 40
1
 40
1
 40
1
 40
1
 10
108.278828
 20
84.997440
 30
0.0
 10
108.657878
 20
84.339870
 30
0.0
 10
109.339538
 20
83.153805
 30
0.0
 10
109.352430
 20
83.129430
 30
0.0
  0
SPLINE
  5
125
100
AcDbEntity
  8
0
 62
7
100
AcDbSpline
 70
8
 71
3
 72
8
 73
4
 74
0
 40
0
 40
0
 40
0
 40
0
 40
1
 40
1
 40
1
 40
1
 10
109.352430
 20
83.129430
 30
0.0
 10
109.358430
 20
83.118255
 30
0.0
 10
109.164330
 20
82.992953
 30
0.0
 10
108.921293
 20
82.850963
 30
0.0
  0
SPLINE
  5
126
100
AcDbEntity
  8
0
 62
7
100
AcDbSpline
 70
8
 71
3
 72
8
 73
4
 74
0
 40
0
 40
0
 40
0
 40
0
 40
1
 40
1
 40
1
 40
1
 10
108.921293
 20
82.850963
 30
0.0
 10
108.678263
 20
82.708980
 30
0.0
 10
108.450803
 20
82.573890
 30
0.0
 10
108.415823
 20
82.550775
 30
0.0
  0
SPLINE
  5
127
100
AcDbEntity
  8
0
 62
7
100
AcDbSpline
 70
8
 71
3
 72
8
 73
4
 74
0
 40
0
 40
0
 40
0
 40
0
 40
1
 40
1
 40
1
 40
1
 10
108.415823
 20
82.550775
 30
0.0
 10
108.355148
 20
82.510650
 30
0.0
 10
108.332243
 20
82.543275
 30
0.0
 10
107.916518
 20
83.267677
 30
0.0
  0
LWPOLYLINE
  5
128
100
AcDbEntity
  8
0
 62
7
100
AcDbPolyline
 90
3
 70
0
 10
107.229300
 20
86.488117
 30
0.0
 10
107.374928
 20
86.576257
 30
0.0
 10
107.691488
 20
86.021730
 30
0.0
  0
LWPOLYLINE
  5
129
100
AcDbEntity
  8
0
 62
7
100
AcDbPolyline
 90
1
 70
1
 10
107.916518
 20
83.267677
 30
0.0
  0
ENDSEC
  0
SECTION
  2
OBJECTS
  0
DICTIONARY
  5
C
330
0
100
AcDbDictionary
  3
ACAD_GROUP
350
D
  3
ACAD_MLINESTYLE
350
17
  0
DICTIONARY
  5
D
330
C
100
AcDbDictionary
  0
DICTIONARY
  5
1A
330
C
100
AcDbDictionary
  0
DICTIONARY
  5
17
330
C
100
AcDbDictionary
  3
STANDARD
350
18
  0
DICTIONARY
  5
19
330
C
100
AcDbDictionary
  0
ENDSEC
  0
EOF
